<svg aria-hidden="true" style="position: absolute; width: 0; height: 0; overflow: hidden;" version="1.1" xmlns="http://www.w3.org/2000/svg" xmlns:xlink="http://www.w3.org/1999/xlink">
  <defs>
    <symbol id="icon-burger" viewBox="0 0 32 32">
      <path d="M0.401 26.277v-1.95h31.2v1.95h-31.2zM0.401 16.975v-1.95h31.2v1.95h-31.2zM0.401 7.674v-1.95h31.2v1.95h-31.2z"></path>
    </symbol>
    <symbol id="icon-arrow-btn" viewBox="0 0 60 32">
      <path d="M58 18c1.105 0 2-0.895 2-2s-0.895-2-2-2v4zM0.585 14.586c-0.781 0.781-0.781 2.047 0 2.828l12.728 12.728c0.781 0.781 2.047 0.781 2.828 0s0.781-2.047 0-2.828l-11.314-11.314 11.314-11.314c0.781-0.781 0.781-2.047 0-2.828s-2.047-0.781-2.828 0l-12.728 12.728zM58 14h-56.001v4h56.001v-4z"></path>
    </symbol>
    <symbol id="icon-close" viewBox="0 0 32 32">
      <path d="M17.394 16l8.196-8.196c0.162-0.189 0.247-0.432 0.237-0.681s-0.113-0.485-0.289-0.661-0.412-0.279-0.661-0.289c-0.249-0.010-0.492 0.075-0.681 0.237l-8.196 8.196-8.196-8.206c-0.186-0.186-0.439-0.291-0.702-0.291s-0.516 0.105-0.702 0.291c-0.186 0.186-0.291 0.439-0.291 0.702s0.105 0.516 0.291 0.702l8.206 8.196-8.206 8.196c-0.104 0.089-0.188 0.198-0.247 0.32s-0.093 0.256-0.098 0.392c-0.005 0.136 0.018 0.272 0.067 0.399s0.125 0.242 0.221 0.338c0.096 0.096 0.212 0.172 0.338 0.221s0.263 0.073 0.399 0.067c0.136-0.005 0.27-0.039 0.392-0.098s0.232-0.143 0.32-0.247l8.206-8.196 8.196 8.196c0.189 0.162 0.432 0.247 0.681 0.237s0.485-0.113 0.661-0.289 0.279-0.412 0.289-0.661c0.010-0.249-0.075-0.492-0.237-0.681l-8.196-8.196z"></path>
    </symbol>
  </defs>
</svg>