<svg aria-hidden="true" style="position: absolute; width: 0; height: 0; overflow: hidden;" version="1.1" xmlns="http://www.w3.org/2000/svg" xmlns:xlink="http://www.w3.org/1999/xlink">
  <defs>
    <symbol id="icon-burger" viewBox="0 0 32 32">
      <path d="M0.401 26.277v-1.95h31.2v1.95h-31.2zM0.401 16.975v-1.95h31.2v1.95h-31.2zM0.401 7.674v-1.95h31.2v1.95h-31.2z"></path>
    </symbol>
    <symbol id="icon-close" viewBox="0 0 32 32">
      <path stroke-linejoin="round" stroke-linecap="round" stroke-miterlimit="4" stroke-width="2" d="M30.75 1.25l-29.5 29.5"></path>
      <path stroke-linejoin="round" stroke-linecap="round" stroke-miterlimit="4" stroke-width="2" d="M1.25 1.25l29.5 29.5"></path>
    </symbol>
    <symbol id="icon-arrow-btn" viewBox="0 0 60 32">
      <path d="M58 18c1.105 0 2-0.895 2-2s-0.895-2-2-2v4zM0.585 14.586c-0.781 0.781-0.781 2.047 0 2.828l12.728 12.728c0.781 0.781 2.047 0.781 2.828 0s0.781-2.047 0-2.828l-11.314-11.314 11.314-11.314c0.781-0.781 0.781-2.047 0-2.828s-2.047-0.781-2.828 0l-12.728 12.728zM58 14h-56.001v4h56.001v-4z"></path>
    </symbol>
  </defs>
</svg>